<svg width="1024" height="1024" viewBox="0 0 1024 1024" fill="none" xmlns="http://www.w3.org/2000/svg">
<g clip-path="url(#clip0_150_2196)">
<path d="M782.26 347.828C690.716 348.083 599.173 350.987 507.629 350.987C416.596 350.987 325.594 350.987 234.561 350.987C223.936 350.987 224.829 344.988 224.829 355.582C224.829 486.978 224.829 618.343 224.829 749.74C224.829 753.441 224.478 757.143 224.733 760.812C227.19 794.539 256.386 822.235 290.208 822.586C303.386 822.714 316.5 823.065 329.647 822.426C337.049 822.075 338.708 824.468 338.645 831.616C338.294 873.83 338.389 916.044 338.485 958.258C338.517 982.795 348.313 1002.51 369.595 1014.99C412.32 1040.07 464.745 1009.92 465.032 960.3C465.319 917.033 465.191 873.766 464.968 830.499C464.936 824.5 466.212 822.331 472.722 822.426C495.663 822.841 518.637 822.905 541.579 822.394C548.918 822.235 550.226 824.788 550.194 831.456C549.907 874.181 550.066 916.938 550.066 959.662C550.066 964.927 550.13 970.224 551.406 975.393C559.543 1007.75 588.611 1027.24 622.561 1023.1C652.746 1019.39 675.847 992.272 675.879 960.237C675.943 920.128 675.879 880.02 675.879 839.944C675.879 822.586 675.879 822.777 693.301 822.522C708.042 822.299 722.975 824.468 737.493 821.182C770.582 813.684 791.226 785.924 791.226 749.644C791.258 617.737 791.194 487.329 791.418 355.422C791.418 348.115 789.439 347.828 782.26 347.828ZM939.79 403.348C939.79 397.828 939.439 392.276 938.768 386.82C934.876 354.816 906.031 331.427 872.464 332.895C840.971 334.267 813.817 361.421 813.498 393.074C813.051 437.904 813.37 482.735 813.402 527.565C813.402 572.938 813.051 618.28 813.53 663.653C813.817 690.009 833.728 714.067 859.19 720.768C901.021 731.776 939.726 701.814 939.79 658.101C939.885 573.194 939.821 488.287 939.79 403.348ZM199.111 378.204C190.081 348.466 155.27 329.002 125.308 333.214C93.0494 337.745 65.2896 363.782 65.2896 396.36C65.2896 440.393 65.2896 484.426 65.2896 528.459C65.2896 572.236 70.331 616.014 70.3948 659.792C70.3948 664.004 72.9474 668.311 73.809 672.363C80.8287 705.675 110.886 725.969 145.793 722.427C176.329 719.332 200.579 692.146 200.611 659.6C200.675 571.79 200.962 483.979 200.962 396.169C200.93 390.106 200.898 384.076 199.111 378.204ZM777.602 242.755C754.373 178.971 711.648 132.067 652.81 99.3294C647.513 96.3619 647.162 94.4474 650.034 89.3741C663.212 65.9856 675.879 42.278 688.866 18.7938C691.865 13.4014 693.365 8.35991 687.175 4.40333C682.261 1.24445 677.379 3.50991 673.454 10.5935C660.372 34.3649 647.226 58.1043 634.463 82.0353C631.783 87.0767 629.358 87.8425 624.093 85.609C587.494 70.1017 549.141 62.731 509.511 62.4757C468.223 62.1886 428.274 69.5274 390.208 85.7685C385.134 87.9382 383.028 86.8853 380.508 82.1948C369.787 61.9652 358.619 41.9589 347.579 21.857C344.93 17.007 342.314 12.125 339.442 7.40268C336.858 3.12702 332.805 2.2336 328.434 3.95662C323.999 5.67965 323.105 9.60432 323.935 13.7843C324.382 16.0497 325.594 18.1875 326.711 20.2616C339.187 43.1714 351.408 66.177 364.362 88.7997C367.904 94.9899 366.117 96.8086 360.789 99.8718C278.211 147.574 229.775 217.357 223.074 314.006C222.596 320.962 224.255 323.387 231.881 323.355C323.424 323.068 414.936 323.163 506.48 323.163C598.279 323.163 690.078 323.068 781.877 323.323C789.44 323.355 791.928 321.664 791.386 313.846C789.695 289.532 785.961 265.729 777.602 242.755ZM377.54 220.452C364.171 220.133 354.024 209.252 354.311 195.564C354.599 182.386 364.905 172.59 378.434 172.718C392.314 172.845 402.173 182.928 402.046 196.872C401.886 210.337 391.037 220.803 377.54 220.452ZM636.154 220.452C623.072 220.292 612.383 209.156 612.542 195.819C612.702 182.8 623.167 172.718 636.505 172.718C650.161 172.718 660.532 183.056 660.5 196.648C660.532 209.922 649.555 220.611 636.154 220.452Z" fill="black"/>
</g>
<defs>
<clipPath id="clip0_150_2196">
<rect width="1024" height="1024" fill="white"/>
</clipPath>
</defs>
</svg>
