<svg width="48" height="57" viewBox="0 0 48 57" fill="none" xmlns="http://www.w3.org/2000/svg">
<path d="M39.9571 54.5399C36.8727 57.4953 33.4691 57.0406 30.2251 55.6417C26.7684 54.2252 23.613 54.1377 19.979 55.6417C15.441 57.5653 13.0301 57.0057 10.3002 54.5399C-5.13983 38.8712 -2.85308 15.0009 14.6787 14.109C18.9331 14.3364 21.9112 16.4349 24.4107 16.6097C28.1334 15.8578 31.6964 13.7243 35.685 14.0041C40.4712 14.3888 44.052 16.2425 46.4451 19.6001C36.589 25.4409 38.929 38.2417 47.9696 41.8441C46.1615 46.5307 43.8393 51.1649 39.9394 54.5924V54.5574L39.9571 54.5399ZM24.0739 13.9342C23.613 6.97418 29.3388 1.23831 35.9154 0.678711C36.8195 8.70543 28.5056 14.7211 24.0739 13.9342Z" fill="black"/>
</svg>
