<svg width="56" height="50" viewBox="0 0 56 50" fill="none" xmlns="http://www.w3.org/2000/svg">
<path d="M52.7188 0H3.28125C1.47219 0 0 1.45671 0 3.24675V35.4978C0 37.2879 1.47219 38.7446 3.28125 38.7446H52.7188C54.5278 38.7446 56 37.2879 56 35.4978V3.24675C56 1.45671 54.5278 0 52.7188 0ZM45.5 46.7532H36.6406V41.9913H19.3594V46.7532H10.5C9.59437 46.7532 8.85938 47.4805 8.85938 48.3766C8.85938 49.2727 9.59437 50 10.5 50H45.5C46.4056 50 47.1406 49.2727 47.1406 48.3766C47.1406 47.4805 46.4056 46.7532 45.5 46.7532Z" fill="black"/>
</svg>
